
<svg width0= "0" height= "0">

 <symbol  xmlns="http://www.w3.org/2000/svg" viewBox="0 0 512 512" id="icon" preserveAspectRatio="xMidYMid meet"
        >
          <g
            transform="translate(0.000000,512.000000) scale(0.100000,-0.100000)"
          >
            <path
              d="M3964 4390 c-319 -226 -590 -423 -604 -438 -17 -19 -43 -85 -84 -217
-32 -105 -62 -194 -67 -199 -14 -15 -74 23 -136 86 -55 56 -60 58 -108 58
-202 0 -653 -295 -1112 -727 -87 -81 -82 -41 -52 -436 12 -153 20 -280 17
-282 -2 -3 -40 6 -84 20 -97 30 -138 31 -164 5 -24 -24 -14 20 -106 -465 -82
-431 -90 -499 -57 -543 27 -36 86 -41 142 -13 76 39 345 265 746 626 184 166
454 440 762 771 153 166 542 619 614 715 22 30 47 60 56 67 27 20 72 14 98
-13 47 -46 37 -67 -109 -249 -519 -646 -1119 -1269 -1675 -1736 -245 -205
-583 -449 -826 -595 -212 -127 -528 -275 -691 -324 -95 -28 -124 -51 -124
-101 0 -30 6 -43 26 -59 15 -12 35 -21 44 -21 26 0 231 72 355 125 138 59 280
130 421 211 120 69 140 74 220 49 130 -41 425 -57 645 -35 492 49 1053 241
1171 400 10 14 21 41 24 60 5 30 -2 46 -45 113 -28 43 -51 81 -51 85 0 5 39
14 88 21 109 15 267 52 394 91 l97 30 105 115 c488 534 749 1183 816 2029 13
166 13 448 -1 634 -10 152 -42 395 -61 470 -12 47 -47 82 -83 82 -14 0 -250
-161 -601 -410z"
            />
          </g>
  </symbol>
</svg>
