<?xml version="1.0" standalone="no"?>
<!DOCTYPE svg PUBLIC "-//W3C//DTD SVG 20010904//EN"
 "http://www.w3.org/TR/2001/REC-SVG-20010904/DTD/svg10.dtd">
<svg version="1.0" xmlns="http://www.w3.org/2000/svg"
 width="512.000000pt" height="512.000000pt" viewBox="0 0 512.000000 512.000000"
 preserveAspectRatio="xMidYMid meet">

<g transform="translate(0.000000,512.000000) scale(0.100000,-0.100000)"
fill="#000000" stroke="none">
<path d="M2620 3469 c-156 -18 -356 -85 -530 -176 -117 -61 -301 -182 -370
-241 -42 -37 -44 -41 -32 -66 6 -14 17 -26 24 -26 32 0 150 -223 203 -383 53
-160 68 -272 61 -451 -3 -83 -9 -170 -12 -193 l-6 -43 646 0 646 0 10 23 c14
32 387 1048 394 1074 4 12 36 70 72 130 79 132 80 150 9 176 -164 61 -561 144
-828 172 -159 16 -176 17 -287 4z m1000 -464 c0 -3 -39 -110 -86 -238 -47
-128 -105 -286 -130 -352 -24 -66 -74 -203 -112 -305 l-68 -185 -613 -3 -613
-2 6 32 c14 79 18 308 7 389 -30 206 -99 398 -203 562 -17 26 -29 50 -26 52 4
5 1497 51 1716 54 67 0 122 -1 122 -4z"/>
<path d="M3995 2797 c-194 -65 -324 -169 -400 -319 -92 -183 -86 -430 15 -711
l32 -88 73 6 73 7 53 -40 c114 -84 210 -116 354 -116 188 0 346 74 461 218 42
52 67 66 117 66 62 0 62 1 61 202 -1 161 -5 195 -27 278 -47 179 -122 304
-232 387 -117 88 -219 122 -395 129 -102 4 -123 2 -185 -19z m337 -248 c189
-63 308 -228 308 -424 0 -91 -26 -175 -77 -252 -45 -68 -100 -113 -189 -155
-65 -31 -75 -33 -179 -33 -106 0 -113 1 -186 36 -99 48 -170 119 -218 218 -35
73 -36 80 -36 186 0 106 1 113 37 187 58 121 152 202 283 244 64 20 186 17
257 -7z"/>
<path d="M4150 2388 l0 -123 45 0 45 0 0 123 0 122 -45 0 -45 0 0 -122z"/>
<path d="M3922 2397 l-32 -33 88 -87 87 -86 32 32 32 33 -87 87 -88 87 -32
-33z"/>
<path d="M4347 2342 l-86 -87 32 -32 33 -32 82 82 c45 45 82 87 82 93 0 6 -13
22 -28 37 l-28 27 -87 -88z"/>
<path d="M3810 2125 l0 -45 123 0 122 0 0 45 0 45 -122 0 -123 0 0 -45z"/>
<path d="M4335 2125 l0 -45 123 0 122 0 0 45 0 45 -122 0 -123 0 0 -45z"/>
<path d="M3982 1977 c-45 -45 -82 -87 -82 -93 0 -13 43 -54 56 -54 5 0 46 37
91 83 l82 82 -32 32 -33 32 -82 -82z"/>
<path d="M4293 2025 l-31 -32 83 -83 c74 -74 84 -81 102 -69 11 6 26 21 33 32
11 18 4 28 -72 102 l-83 83 -32 -33z"/>
<path d="M4150 1862 l0 -123 43 3 42 3 3 120 3 120 -46 0 -45 0 0 -123z"/>
<path d="M955 2773 c-288 -36 -476 -195 -542 -458 -27 -111 -22 -356 10 -505
14 -63 30 -127 36 -142 l11 -28 112 0 c112 0 114 0 193 -40 113 -57 220 -77
334 -63 98 13 192 47 266 97 47 32 57 35 162 41 l111 7 16 57 c43 155 47 446
8 592 -65 241 -217 393 -435 434 -72 14 -207 18 -282 8z m214 -222 c83 -26
137 -60 198 -123 108 -115 147 -263 108 -413 -53 -201 -224 -335 -429 -335
-180 0 -329 94 -408 259 -28 57 -33 80 -36 163 -4 80 -1 107 18 162 24 73 88
167 141 207 46 35 130 77 176 88 66 16 168 12 232 -8z"/>
<path d="M1000 2386 l0 -124 45 0 45 0 0 124 0 124 -45 0 -45 0 0 -124z"/>
<path d="M772 2397 l-32 -33 88 -87 87 -86 32 32 32 33 -87 87 -88 87 -32 -33z"/>
<path d="M1193 2338 l-82 -83 31 -34 30 -34 86 86 86 86 -20 28 c-12 16 -27
29 -35 31 -8 1 -51 -35 -96 -80z"/>
<path d="M660 2125 l0 -45 123 0 122 0 0 45 0 45 -122 0 -123 0 0 -45z"/>
<path d="M1182 2125 l0 -46 121 3 122 3 0 40 0 40 -122 3 -121 3 0 -46z"/>
<path d="M826 1971 l-86 -87 33 -32 33 -32 85 88 85 87 -32 31 -33 31 -85 -86z"/>
<path d="M1143 2026 l-31 -33 84 -84 84 -84 32 33 33 32 -85 85 -85 84 -32
-33z"/>
<path d="M1000 1862 l0 -123 43 3 42 3 3 120 3 120 -46 0 -45 0 0 -123z"/>
</g>
</svg>
